<svg width="147" height="29" viewBox="0 0 147 29" fill="none" xmlns="http://www.w3.org/2000/svg">
<mask id="mask0" mask-type="alpha" maskUnits="userSpaceOnUse" x="40" y="1" width="107" height="20">
<path fill-rule="evenodd" clip-rule="evenodd" d="M146.862 20.7163V1.93881H40.9512V20.7163H146.862V20.7163Z" fill="white"/>
</mask>
<g mask="url(#mask0)">
<path fill-rule="evenodd" clip-rule="evenodd" d="M143.351 14.1895C143.351 11.9647 142.071 10.4816 140.346 10.4816C138.56 10.4816 137.31 11.9647 137.31 14.1895C137.31 16.4737 138.56 17.8973 140.346 17.8973C142.071 17.8973 143.351 16.4737 143.351 14.1895V14.1895ZM140.346 20.7163C136.745 20.7163 133.801 18.1939 133.801 14.249C133.801 10.2737 136.745 7.66358 140.346 7.66358C143.916 7.66358 146.863 10.2737 146.863 14.249C146.863 18.1939 143.916 20.7163 140.346 20.7163V20.7163ZM127.105 7.96122H130.674V20.4186H127.666L127.105 18.6984V7.96122ZM126.836 3.98493C126.836 2.79841 127.73 1.93881 128.92 1.93881C130.11 1.93881 131.032 2.79841 131.032 3.98493C131.032 5.17144 130.11 6.00284 128.92 6.00284C127.73 6.00284 126.836 5.17144 126.836 3.98493V3.98493ZM116.835 10.5995C115.11 10.5995 113.89 12.0534 113.89 14.159C113.89 16.2657 115.11 17.7781 116.835 17.7781C118.621 17.7781 119.87 16.3848 119.87 14.159C119.87 11.9646 118.621 10.5995 116.835 10.5995V10.5995ZM119.664 9.26579V2.47152H123.233V20.4186H120.882L120.318 18.6984H120.168C120.168 18.6984 119.157 20.7163 116.091 20.7163C112.789 20.7163 110.261 18.1939 110.261 14.2187C110.261 10.3332 112.728 7.66358 115.973 7.66358C118.68 7.66358 119.514 9.26579 119.514 9.26579H119.664ZM103.563 7.96122H107.135V20.4186H104.753L104.128 18.7286H103.979C103.385 19.5872 102.313 20.7163 100.112 20.7163C96.9268 20.7163 94.9938 18.55 94.9938 15.1983V7.96122H98.5633V14.9017C98.5633 16.5029 99.368 17.7186 100.974 17.7186C102.7 17.7186 103.563 16.3253 103.563 15.168V7.96122ZM85.3224 7.96119V4.1635H88.893V7.96119H91.9575V10.7186H88.893V16.296C88.893 17.1567 89.31 17.6591 90.2319 17.6591C90.9454 17.6591 91.5699 17.2455 91.5699 17.2455L92.583 19.7062C92.0466 20.0927 90.7977 20.7162 89.3697 20.7162C86.4822 20.7162 85.3224 18.9062 85.3224 16.4141V10.7186H83.1505V7.96119H85.3224ZM71.5724 16.8894C71.5724 16.8894 73.4468 18.1051 75.6197 18.1051C77.0184 18.1051 77.5244 17.6591 77.5244 17.0377C77.5244 15.0198 70.53 16.2063 70.53 11.4613C70.53 9.32533 72.1979 7.66358 75.5306 7.66358C79.1012 7.66358 80.9755 8.76131 80.9755 8.76131L79.8744 11.4017C79.8744 11.4017 78.2075 10.3029 75.9466 10.3029C74.7857 10.3029 74.132 10.6299 74.132 11.3422C74.132 13.2703 81.2438 11.9647 81.2438 16.8298C81.2438 18.9961 79.6963 20.7163 75.8282 20.7163C72.0481 20.7163 70.4126 19.3219 70.4126 19.3219L71.5724 16.8894ZM59.8474 14.0703L55.8599 7.96122H59.8768L62.1377 11.8748H62.2278L64.4898 7.96122H68.4763L64.2813 14.0703L68.6261 20.4186H64.6093L62.2278 16.2063H62.1377L59.6976 20.4186H55.7122L59.8474 14.0703ZM49.5193 7.96122H53.0919V20.4186H50.7116L50.085 18.7286H49.9373C49.3422 19.5872 48.2704 20.7163 46.0681 20.7163C42.8852 20.7163 40.9512 18.55 40.9512 15.1983V7.96122H44.5217V14.9017C44.5217 16.5029 45.3253 17.7186 46.9325 17.7186C48.6581 17.7186 49.5193 16.3253 49.5193 15.168V7.96122Z" fill="#172735"/>
</g>
<mask id="mask1" mask-type="alpha" maskUnits="userSpaceOnUse" x="0" y="0" width="29" height="29">
<path fill-rule="evenodd" clip-rule="evenodd" d="M28.3237 0H0L0 28.3496H28.3237V0V0Z" fill="white"/>
</mask>
<g mask="url(#mask1)">
<path fill-rule="evenodd" clip-rule="evenodd" d="M2.48723 24.0992V4.25116L12.4016 14.1757L2.48723 24.0992ZM24.074 25.8601H4.2464L14.1607 15.9366L24.074 25.8601ZM25.8364 4.25116V24.1013L15.9199 14.1757L25.8364 4.25116ZM28.3237 27.1054V1.24505C28.3237 1.08335 28.2912 0.921652 28.2272 0.769402C28.1663 0.621353 28.0782 0.490104 27.967 0.376704C27.9639 0.373554 27.9628 0.368304 27.9586 0.364104C27.9513 0.356754 27.9408 0.354654 27.9324 0.346254C27.8223 0.242305 27.6964 0.155155 27.5548 0.0963554C27.411 0.0365057 27.2568 0.00815582 27.1037 0.00500583C27.0953 0.00500583 27.0879 -0.000244141 27.0796 -0.000244141C27.0701 -0.000244141 27.0628 0.00500584 27.0523 0.00605583C26.8991 0.00920582 26.7481 0.0365057 26.6043 0.0963554C26.4617 0.155155 26.3358 0.242305 26.2267 0.346254C26.2194 0.354654 26.2078 0.356754 26.2005 0.364104L14.1608 12.4149L2.12218 0.364104C2.11589 0.356754 2.10435 0.354654 2.097 0.346254C1.98685 0.242305 1.86097 0.155155 1.71935 0.0963554C1.57459 0.0365057 1.42248 0.00815582 1.26932 0.00500583C1.25988 0.00500583 1.25254 -0.000244141 1.2431 -0.000244141C1.2347 -0.000244141 1.22736 0.00500583 1.21792 0.00500583C1.06581 0.00815582 0.912652 0.0365057 0.767887 0.0963554C0.627317 0.155155 0.500385 0.242305 0.391287 0.346254C0.382894 0.354654 0.371355 0.356754 0.365061 0.364104C0.360865 0.368304 0.359816 0.373554 0.356669 0.376704C0.245472 0.490104 0.156305 0.621353 0.0965104 0.769402C0.0325198 0.921652 0 1.08335 0 1.24505V27.1054C0 27.2671 0.0325198 27.4288 0.0965104 27.581C0.157354 27.7301 0.24757 27.8635 0.358767 27.9769C0.361914 27.98 0.361914 27.9832 0.365061 27.9853C0.370306 27.9926 0.379747 27.9937 0.386042 28C0.497238 28.106 0.625219 28.1942 0.767887 28.2541C0.919996 28.3171 1.08155 28.3496 1.2431 28.3496H27.0796C27.1058 28.3496 27.1268 28.337 27.1519 28.336C27.2883 28.3265 27.4236 28.3076 27.5516 28.2551C27.859 28.1281 28.1024 27.8834 28.2282 27.5747C28.2408 27.5464 28.2377 27.5149 28.2471 27.4865C28.287 27.3637 28.3237 27.2398 28.3237 27.1054V27.1054Z" fill="#4BCD8C"/>
</g>
</svg>
