<svg width="18" height="18" viewBox="0 0 18 18" fill="none" xmlns="http://www.w3.org/2000/svg">
<path d="M5.55 17.5H2.3C1.8 17.5 1.375 17.325 1.025 16.975C0.675 16.625 0.5 16.2 0.5 15.7V9C0.5 7.81667 0.725 6.71267 1.175 5.688C1.625 4.66267 2.23333 3.76667 3 3C3.76667 2.23333 4.66267 1.625 5.688 1.175C6.71267 0.725 7.81667 0.5 9 0.5C10.1833 0.5 11.2873 0.725 12.312 1.175C13.3373 1.625 14.2333 2.23333 15 3C15.7667 3.76667 16.375 4.66267 16.825 5.688C17.275 6.71267 17.5 7.81667 17.5 9V15.7C17.5 16.2 17.325 16.625 16.975 16.975C16.625 17.325 16.2 17.5 15.7 17.5H12.45V10.425H16V9C16 7.05 15.3207 5.39567 13.962 4.037C12.604 2.679 10.95 2 9 2C7.05 2 5.396 2.679 4.038 4.037C2.67933 5.39567 2 7.05 2 9V10.425H5.55V17.5ZM4.05 11.925H2V15.7C2 15.7667 2.03333 15.8333 2.1 15.9C2.16667 15.9667 2.23333 16 2.3 16H4.05V11.925ZM13.95 11.925V16H15.7C15.7667 16 15.8333 15.9667 15.9 15.9C15.9667 15.8333 16 15.7667 16 15.7V11.925H13.95ZM13.95 11.925H16C16 11.925 15.9667 11.925 15.9 11.925C15.8333 11.925 15.7667 11.925 15.7 11.925H13.95ZM4.05 11.925H2.3C2.23333 11.925 2.16667 11.925 2.1 11.925C2.03333 11.925 2 11.925 2 11.925H4.05Z" fill="white"/>
</svg>
