<svg width="16" height="22" viewBox="0 0 16 22" fill="none" xmlns="http://www.w3.org/2000/svg">
<path d="M11.65 4.0001L7.975 7.6501L6.925 6.6001L8.775 4.7501H8C6.26667 4.7501 4.79167 5.36243 3.575 6.5871C2.35833 7.81243 1.75 9.3001 1.75 11.0501C1.75 11.4668 1.796 11.8791 1.888 12.2871C1.97933 12.6958 2.11667 13.1001 2.3 13.5001L1.175 14.6251C0.875 14.0584 0.646 13.4751 0.488 12.8751C0.329333 12.2751 0.25 11.6668 0.25 11.0501C0.25 8.88343 1.00433 7.04176 2.513 5.5251C4.021 4.00843 5.85 3.2501 8 3.2501H8.775L6.925 1.4001L7.975 0.350098L11.65 4.0001ZM4.35 18.0001L8.025 14.3501L9.075 15.4001L7.225 17.2501H8C9.73333 17.2501 11.2083 16.6378 12.425 15.4131C13.6417 14.1878 14.25 12.7001 14.25 10.9501C14.25 10.5334 14.2043 10.1208 14.113 9.7121C14.021 9.3041 13.8833 8.9001 13.7 8.5001L14.825 7.3751C15.125 7.94176 15.3543 8.5251 15.513 9.1251C15.671 9.7251 15.75 10.3334 15.75 10.9501C15.75 13.1168 14.996 14.9584 13.488 16.4751C11.9793 17.9918 10.15 18.7501 8 18.7501H7.225L9.075 20.6001L8.025 21.6501L4.35 18.0001Z" fill="white"/>
</svg>
