<svg width="20" height="18" viewBox="0 0 20 18" fill="none" xmlns="http://www.w3.org/2000/svg">
<path d="M10 17.3249L8.875 16.3249C6.34167 14.0416 4.31233 12.0582 2.787 10.3749C1.26233 8.69157 0.5 6.9499 0.5 5.1499C0.5 3.73324 0.979333 2.54557 1.938 1.5869C2.896 0.628902 4.08333 0.149902 5.5 0.149902C6.3 0.149902 7.096 0.337235 7.888 0.711902C8.67933 1.08724 9.38333 1.69157 10 2.5249C10.6167 1.69157 11.321 1.08724 12.113 0.711902C12.9043 0.337235 13.7 0.149902 14.5 0.149902C15.9167 0.149902 17.104 0.628902 18.062 1.5869C19.0207 2.54557 19.5 3.73324 19.5 5.1499C19.5 6.9499 18.7373 8.69157 17.212 10.3749C15.6873 12.0582 13.6583 14.0416 11.125 16.3249L10 17.3249ZM10 15.2999C12.3833 13.1332 14.3127 11.2666 15.788 9.6999C17.2627 8.13323 18 6.61657 18 5.1499C18 4.1499 17.6667 3.31657 17 2.6499C16.3333 1.98324 15.5 1.6499 14.5 1.6499C13.7167 1.6499 12.9917 1.86657 12.325 2.2999C11.6583 2.73324 11.125 3.36657 10.725 4.1999H9.275C8.875 3.36657 8.34167 2.73324 7.675 2.2999C7.00833 1.86657 6.28333 1.6499 5.5 1.6499C4.5 1.6499 3.66667 1.98324 3 2.6499C2.33333 3.31657 2 4.1499 2 5.1499C2 6.61657 2.73767 8.13323 4.213 9.6999C5.68767 11.2666 7.61667 13.1332 10 15.2999Z" fill="white"/>
</svg>
