<svg width="16" height="4" viewBox="0 0 16 4" fill="none" xmlns="http://www.w3.org/2000/svg">
<path d="M2.2251 3.5C1.80843 3.5 1.45443 3.354 1.1631 3.062C0.871098 2.77067 0.725098 2.41667 0.725098 2C0.725098 1.58333 0.871098 1.22933 1.1631 0.938C1.45443 0.646 1.80843 0.5 2.2251 0.5C2.64176 0.5 2.9961 0.646 3.2881 0.938C3.57943 1.22933 3.7251 1.58333 3.7251 2C3.7251 2.41667 3.57943 2.77067 3.2881 3.062C2.9961 3.354 2.64176 3.5 2.2251 3.5ZM8.0001 3.5C7.58343 3.5 7.22943 3.354 6.9381 3.062C6.6461 2.77067 6.5001 2.41667 6.5001 2C6.5001 1.58333 6.6461 1.22933 6.9381 0.938C7.22943 0.646 7.58343 0.5 8.0001 0.5C8.41676 0.5 8.77076 0.646 9.0621 0.938C9.3541 1.22933 9.5001 1.58333 9.5001 2C9.5001 2.41667 9.3541 2.77067 9.0621 3.062C8.77076 3.354 8.41676 3.5 8.0001 3.5ZM13.7751 3.5C13.3584 3.5 13.0044 3.354 12.7131 3.062C12.4211 2.77067 12.2751 2.41667 12.2751 2C12.2751 1.58333 12.4211 1.22933 12.7131 0.938C13.0044 0.646 13.3584 0.5 13.7751 0.5C14.1918 0.5 14.5461 0.646 14.8381 0.938C15.1294 1.22933 15.2751 1.58333 15.2751 2C15.2751 2.41667 15.1294 2.77067 14.8381 3.062C14.5461 3.354 14.1918 3.5 13.7751 3.5Z" fill="white"/>
</svg>
