<svg width="19" height="21" viewBox="0 0 19 21" fill="none" xmlns="http://www.w3.org/2000/svg">
<path d="M2.2499 16.8748V15.3748H4.2499V8.1248C4.2499 7.8748 4.26657 7.64147 4.2999 7.4248C4.33324 7.20814 4.3749 6.99147 4.4249 6.7748L0.0249023 2.3748L1.0999 1.3248L18.9249 19.1498L17.8749 20.2248L14.4999 16.8748H2.2499ZM15.7499 13.1498L14.2499 11.6498V8.1248C14.2499 6.94147 13.8332 5.93714 12.9999 5.1118C12.1666 4.28714 11.1666 3.8748 9.9999 3.8748C9.53324 3.8748 9.0709 3.9538 8.6129 4.1118C8.15423 4.27047 7.7499 4.4998 7.3999 4.7998L6.3249 3.7248C6.6749 3.4248 7.05824 3.17047 7.4749 2.9618C7.89157 2.7538 8.31657 2.5998 8.7499 2.4998V1.7998C8.7499 1.4498 8.8709 1.1538 9.1129 0.911805C9.35423 0.670471 9.6499 0.549805 9.9999 0.549805C10.3499 0.549805 10.6456 0.670471 10.8869 0.911805C11.1289 1.1538 11.2499 1.4498 11.2499 1.7998V2.4998C12.4999 2.78314 13.5626 3.43747 14.4379 4.4628C15.3126 5.48747 15.7499 6.70814 15.7499 8.1248V13.1498ZM9.9999 19.7998C9.4999 19.7998 9.0749 19.6248 8.7249 19.2748C8.3749 18.9248 8.1999 18.4998 8.1999 17.9998H11.7999C11.7999 18.4998 11.6249 18.9248 11.2749 19.2748C10.9249 19.6248 10.4999 19.7998 9.9999 19.7998ZM5.7499 15.3748H12.9749L5.7999 8.1748C5.78324 8.24147 5.7709 8.31214 5.7629 8.3868C5.75424 8.46214 5.7499 8.53314 5.7499 8.5998V15.3748Z" fill="white"/>
</svg>
