<svg width="20" height="20" viewBox="0 0 20 20" fill="none" xmlns="http://www.w3.org/2000/svg">
<path d="M7.7001 19.5L7.3001 16.45C7.03343 16.3667 6.76277 16.2417 6.4881 16.075C6.21276 15.9083 5.95843 15.7333 5.7251 15.55L2.9001 16.75L0.600098 12.75L3.0501 10.9C3.01676 10.75 2.9961 10.6 2.9881 10.45C2.97943 10.3 2.9751 10.15 2.9751 10C2.9751 9.86667 2.97943 9.725 2.9881 9.575C2.9961 9.425 3.01676 9.26667 3.0501 9.1L0.600098 7.25L2.9001 3.275L5.7251 4.45C5.95843 4.26667 6.21276 4.096 6.4881 3.938C6.76277 3.77933 7.03343 3.65 7.3001 3.55L7.7001 0.5H12.3001L12.7001 3.55C13.0001 3.66667 13.2708 3.79567 13.5121 3.937C13.7541 4.079 14.0001 4.25 14.2501 4.45L17.1001 3.275L19.4001 7.25L16.9251 9.125C16.9584 9.29167 16.9751 9.44167 16.9751 9.575C16.9751 9.70833 16.9751 9.85 16.9751 10C16.9751 10.1333 16.9708 10.2707 16.9621 10.412C16.9541 10.554 16.9334 10.7167 16.9001 10.9L19.3501 12.75L17.0501 16.75L14.2501 15.55C14.0001 15.75 13.7461 15.925 13.4881 16.075C13.2294 16.225 12.9668 16.35 12.7001 16.45L12.3001 19.5H7.7001ZM10.0001 13C10.8334 13 11.5418 12.7083 12.1251 12.125C12.7084 11.5417 13.0001 10.8333 13.0001 10C13.0001 9.16667 12.7084 8.45833 12.1251 7.875C11.5418 7.29167 10.8334 7 10.0001 7C9.16676 7 8.45843 7.29167 7.8751 7.875C7.29177 8.45833 7.0001 9.16667 7.0001 10C7.0001 10.8333 7.29177 11.5417 7.8751 12.125C8.45843 12.7083 9.16676 13 10.0001 13ZM10.0001 11.5C9.58343 11.5 9.22943 11.354 8.9381 11.062C8.6461 10.7707 8.5001 10.4167 8.5001 10C8.5001 9.58333 8.6461 9.22933 8.9381 8.938C9.22943 8.646 9.58343 8.5 10.0001 8.5C10.4168 8.5 10.7708 8.646 11.0621 8.938C11.3541 9.22933 11.5001 9.58333 11.5001 10C11.5001 10.4167 11.3541 10.7707 11.0621 11.062C10.7708 11.354 10.4168 11.5 10.0001 11.5ZM9.0001 18H10.9751L11.3251 15.325C11.8418 15.1917 12.3084 15 12.7251 14.75C13.1418 14.5 13.5501 14.1833 13.9501 13.8L16.4251 14.85L17.4251 13.15L15.2501 11.525C15.3334 11.2583 15.3878 11 15.4131 10.75C15.4378 10.5 15.4501 10.25 15.4501 10C15.4501 9.73333 15.4378 9.47933 15.4131 9.238C15.3878 8.996 15.3334 8.75 15.2501 8.5L17.4251 6.85L16.4501 5.15L13.9251 6.2C13.5918 5.85 13.1918 5.53733 12.7251 5.262C12.2584 4.98733 11.7918 4.79167 11.3251 4.675L11.0001 2H9.0251L8.6751 4.675C8.1751 4.79167 7.70843 4.975 7.2751 5.225C6.84176 5.475 6.4251 5.79167 6.0251 6.175L3.5501 5.15L2.5751 6.85L4.7251 8.45C4.64176 8.7 4.58343 8.95 4.5501 9.2C4.51677 9.45 4.5001 9.71667 4.5001 10C4.5001 10.2667 4.51677 10.525 4.5501 10.775C4.58343 11.025 4.64176 11.275 4.7251 11.525L2.5751 13.15L3.5501 14.85L6.0251 13.8C6.40843 14.1833 6.81677 14.5 7.2501 14.75C7.68343 15 8.15843 15.1917 8.6751 15.325L9.0001 18Z" fill="white"/>
</svg>
